<svg xmlns="http://www.w3.org/2000/svg" viewBox="0 0 1024 1024">
  <defs>
    <linearGradient id="tile" x1="132" y1="96" x2="872" y2="928" gradientUnits="userSpaceOnUse">
      <stop offset="0" stop-color="#f9fffd"/>
      <stop offset="1" stop-color="#bfeee5"/>
    </linearGradient>
    <linearGradient id="page" x1="328" y1="214" x2="704" y2="804" gradientUnits="userSpaceOnUse">
      <stop offset="0" stop-color="#ffffff"/>
      <stop offset="1" stop-color="#d9f3ed"/>
    </linearGradient>
    <linearGradient id="edge" x1="260" y1="220" x2="760" y2="820" gradientUnits="userSpaceOnUse">
      <stop offset="0" stop-color="#42e6cf"/>
      <stop offset="1" stop-color="#0b7a75"/>
    </linearGradient>
    <linearGradient id="fold" x1="628" y1="226" x2="772" y2="378" gradientUnits="userSpaceOnUse">
      <stop offset="0" stop-color="#dffaf5"/>
      <stop offset="1" stop-color="#5cd2c4"/>
    </linearGradient>
    <filter id="tileShadow" x="-16%" y="-16%" width="132%" height="132%">
      <feDropShadow dx="0" dy="26" stdDeviation="30" flood-color="#071116" flood-opacity="0.22"/>
    </filter>
    <filter id="pageShadow" x="-20%" y="-20%" width="140%" height="140%">
      <feDropShadow dx="0" dy="18" stdDeviation="18" flood-color="#071116" flood-opacity="0.18"/>
    </filter>
  </defs>
  <rect x="92" y="92" width="840" height="840" rx="188" fill="url(#tile)" filter="url(#tileShadow)"/>
  <rect x="134" y="134" width="756" height="756" rx="152" fill="none" stroke="#ffffff" stroke-opacity="0.55" stroke-width="26"/>
  <path d="M306 216h356l150 150v446c0 49-39 88-88 88H306c-49 0-88-39-88-88V304c0-49 39-88 88-88z" fill="url(#edge)" filter="url(#pageShadow)"/>
  <path d="M332 256h314l126 126v408c0 39-31 70-70 70H332c-39 0-70-31-70-70V326c0-39 31-70 70-70z" fill="url(#page)"/>
  <path d="M646 256v90c0 31 25 56 56 56h70L646 256z" fill="url(#fold)"/>
  <path d="M346 652V420h64l78 116 78-116h64v232h-64V520l-60 88h-36l-60-88v132h-64z" fill="#12313c"/>
  <path d="M346 722h334" stroke="#0b7a75" stroke-width="30" stroke-linecap="round"/>
  <path d="M346 790h214" stroke="#5cd2c4" stroke-width="26" stroke-linecap="round"/>
</svg>
