<svg xmlns="http://www.w3.org/2000/svg" viewBox="0 0 1024 1024">
  <defs>
    <linearGradient id="page" x1="292" y1="128" x2="744" y2="900" gradientUnits="userSpaceOnUse">
      <stop offset="0" stop-color="#ffffff"/>
      <stop offset="1" stop-color="#d9f3ed"/>
    </linearGradient>
    <linearGradient id="edge" x1="206" y1="160" x2="830" y2="864" gradientUnits="userSpaceOnUse">
      <stop offset="0" stop-color="#42e6cf"/>
      <stop offset="1" stop-color="#0b7a75"/>
    </linearGradient>
    <linearGradient id="fold" x1="628" y1="140" x2="810" y2="324" gradientUnits="userSpaceOnUse">
      <stop offset="0" stop-color="#dffaf5"/>
      <stop offset="1" stop-color="#5cd2c4"/>
    </linearGradient>
    <filter id="shadow" x="-20%" y="-20%" width="140%" height="140%">
      <feDropShadow dx="0" dy="32" stdDeviation="30" flood-color="#071116" flood-opacity="0.28"/>
    </filter>
  </defs>
  <path d="M276 122h384l164 164v548c0 55-44 99-99 99H280c-55 0-99-44-99-99V217c0-52 43-95 95-95z" fill="url(#edge)" filter="url(#shadow)"/>
  <path d="M304 162h336l144 144v506c0 44-35 79-79 79H304c-44 0-79-35-79-79V241c0-44 35-79 79-79z" fill="url(#page)"/>
  <path d="M640 162v104c0 36 29 65 65 65h79L640 162z" fill="url(#fold)"/>
  <path d="M331 652V378h74l88 132 88-132h74v274h-72V486l-72 106h-36l-72-106v166h-72z" fill="#12313c"/>
  <path d="M331 728h368" stroke="#0b7a75" stroke-width="34" stroke-linecap="round"/>
  <path d="M331 800h236" stroke="#5cd2c4" stroke-width="30" stroke-linecap="round"/>
</svg>
